<svg version="1.1" id="Layer_1" xmlns="http://www.w3.org/2000/svg" xmlns:xlink="http://www.w3.org/1999/xlink" x="0px" y="0px"
	 width="100%" viewBox="0 0 500 500" enable-background="new 0 0 500 500" xml:space="preserve">
<path fill="#FFFFFF" opacity="1.000000" stroke="none" 
	d="
M247.000000,501.000000 
	C164.666687,501.000000 82.833374,501.000000 1.000044,501.000000 
	C1.000029,334.333405 1.000029,167.666779 1.000015,1.000133 
	C167.666565,1.000089 334.333130,1.000089 500.999756,1.000044 
	C500.999847,167.666519 500.999847,334.333038 500.999939,500.999786 
	C416.500000,501.000000 332.000000,501.000000 247.000000,501.000000 
M181.570984,248.499695 
	C181.570984,269.094269 181.570984,289.688873 181.570984,310.257935 
	C228.103149,310.257935 273.968201,310.257935 319.769226,310.257935 
	C319.769226,264.001556 319.769226,218.108780 319.769226,172.281021 
	C273.605194,172.281021 227.739380,172.281021 181.571121,172.281021 
	C181.571121,197.566025 181.571121,222.532852 181.570984,248.499695 
M87.500000,171.960617 
	C69.414986,171.960617 51.329964,171.960617 33.251740,171.960617 
	C33.251740,218.430603 33.251740,264.317535 33.251740,310.293701 
	C79.553619,310.293701 125.596252,310.293701 171.635040,310.293701 
	C171.635040,264.071930 171.635040,218.179825 171.635040,171.960617 
	C143.738510,171.960617 116.119255,171.960617 87.500000,171.960617 
M429.499817,310.626526 
	C442.421692,310.626526 455.343597,310.626526 468.242798,310.626526 
	C468.242798,263.979156 468.242798,218.084656 468.242798,172.272095 
	C421.985626,172.272095 376.076141,172.272095 330.273987,172.272095 
	C330.273987,218.485046 330.273987,264.383636 330.273987,310.626434 
	C363.228516,310.626434 395.864136,310.626434 429.499817,310.626526 
z"/>
<path fill="#028102" opacity="1.000000" stroke="none" 
	d="
M181.571045,247.999695 
	C181.571121,222.532852 181.571121,197.566025 181.571121,172.281021 
	C227.739380,172.281021 273.605194,172.281021 319.769226,172.281021 
	C319.769226,218.108780 319.769226,264.001556 319.769226,310.257935 
	C273.968201,310.257935 228.103149,310.257935 181.570984,310.257935 
	C181.570984,289.688873 181.570984,269.094269 181.571045,247.999695 
M274.408691,194.937180 
	C261.274384,190.309769 247.930740,190.301025 234.587128,193.614258 
	C218.378387,197.638870 208.302032,208.103104 204.507263,224.260895 
	C201.611465,236.590866 201.687836,249.064240 205.157318,261.313538 
	C208.732742,273.936798 216.532639,283.180084 228.955109,287.684235 
	C244.484818,293.315063 260.340576,293.509308 275.905884,287.846893 
	C291.558746,282.152679 300.896362,266.803955 298.892639,250.934097 
	C289.657104,250.934097 280.395111,250.934097 271.053223,250.934097 
	C270.853394,251.930130 270.678436,252.732239 270.532654,253.539612 
	C268.748077,263.422089 263.828583,267.834900 254.112503,268.262329 
	C243.775787,268.717072 237.095551,264.666351 235.705429,254.783600 
	C234.472580,246.019165 234.500992,236.793381 235.780289,228.035294 
	C237.206848,218.268936 243.953094,214.321396 254.402542,214.851807 
	C262.781250,215.277115 267.803680,220.127625 269.428772,229.359665 
	C269.627533,230.488785 269.840759,231.615356 270.023132,232.611298 
	C279.903534,232.611298 289.612305,232.611298 299.410980,232.611298 
	C299.317963,214.620895 291.661621,201.999725 274.408691,194.937180 
z"/>
<path fill="#038103" opacity="1.000000" stroke="none" 
	d="
M88.000000,171.960617 
	C116.119255,171.960617 143.738510,171.960617 171.635040,171.960617 
	C171.635040,218.179825 171.635040,264.071930 171.635040,310.293701 
	C125.596252,310.293701 79.553619,310.293701 33.251740,310.293701 
	C33.251740,264.317535 33.251740,218.430603 33.251740,171.960617 
	C51.329964,171.960617 69.414986,171.960617 88.000000,171.960617 
M144.525360,220.150253 
	C139.176575,207.282303 129.052780,199.665131 115.762367,198.302689 
	C99.595947,196.645416 83.216248,197.064651 66.928345,196.601730 
	C65.008904,196.547180 63.086559,196.594315 61.205318,196.594315 
	C61.205318,227.422379 61.205318,257.613220 61.205318,288.504242 
	C79.013741,287.977356 96.533089,288.289551 113.880745,286.712738 
	C131.317825,285.127808 143.095581,274.043335 146.680786,257.755432 
	C149.404221,245.382599 149.196579,232.970123 144.525360,220.150253 
z"/>
<path fill="#048204" opacity="1.000000" stroke="none" 
	d="
M428.999817,310.626465 
	C395.864136,310.626434 363.228516,310.626434 330.273987,310.626434 
	C330.273987,264.383636 330.273987,218.485046 330.273987,172.272095 
	C376.076141,172.272095 421.985626,172.272095 468.242798,172.272095 
	C468.242798,218.084656 468.242798,263.979156 468.242798,310.626526 
	C455.343597,310.626526 442.421692,310.626526 428.999817,310.626465 
M422.212952,194.089005 
	C409.843964,190.304214 397.261597,189.976089 384.641693,192.261185 
	C363.751373,196.043839 350.682617,209.020706 347.932739,230.137878 
	C346.768677,239.077194 347.005249,248.538055 348.553528,257.422363 
	C352.007202,277.239929 365.511902,288.807007 385.347015,291.089417 
	C401.404266,292.937103 416.509491,291.008209 430.131195,280.712494 
	C431.302063,284.009277 432.331940,286.909027 433.313080,289.671509 
	C438.796906,289.671509 444.038330,289.671509 449.294128,289.671509 
	C449.294128,271.584106 449.294128,253.825851 449.294128,236.013031 
	C431.936890,236.013031 414.874817,236.013031 397.754456,236.013031 
	C397.754456,242.615082 397.754456,248.859314 397.754456,255.739578 
	C405.082153,255.739578 412.114319,255.739578 420.217316,255.739578 
	C418.828552,258.542175 418.287689,260.761749 416.922058,262.195953 
	C410.723694,268.705414 402.738525,269.039703 394.635956,267.621277 
	C387.117981,266.305145 381.323944,261.816223 380.233276,254.230225 
	C379.088684,246.269226 378.826874,237.919617 379.889923,229.968521 
	C381.249603,219.798294 388.635040,214.786179 399.972839,214.316391 
	C410.410950,213.883850 416.896454,218.162292 420.084534,227.621002 
	C429.792908,227.621002 439.514008,227.621002 449.729279,227.621002 
	C449.200043,224.309097 449.005188,221.298615 448.215271,218.453339 
	C444.603607,205.443619 434.896149,198.696640 422.212952,194.089005 
z"/>
<path fill="#FCFEFC" opacity="1.000000" stroke="none" 
	d="
M274.785217,195.036102 
	C291.661621,201.999725 299.317963,214.620895 299.410980,232.611298 
	C289.612305,232.611298 279.903534,232.611298 270.023132,232.611298 
	C269.840759,231.615356 269.627533,230.488785 269.428772,229.359665 
	C267.803680,220.127625 262.781250,215.277115 254.402542,214.851807 
	C243.953094,214.321396 237.206848,218.268936 235.780289,228.035294 
	C234.500992,236.793381 234.472580,246.019165 235.705429,254.783600 
	C237.095551,264.666351 243.775787,268.717072 254.112503,268.262329 
	C263.828583,267.834900 268.748077,263.422089 270.532654,253.539612 
	C270.678436,252.732239 270.853394,251.930130 271.053223,250.934097 
	C280.395111,250.934097 289.657104,250.934097 298.892639,250.934097 
	C300.896362,266.803955 291.558746,282.152679 275.905884,287.846893 
	C260.340576,293.509308 244.484818,293.315063 228.955109,287.684235 
	C216.532639,283.180084 208.732742,273.936798 205.157318,261.313538 
	C201.687836,249.064240 201.611465,236.590866 204.507263,224.260895 
	C208.302032,208.103104 218.378387,197.638870 234.587128,193.614258 
	C247.930740,190.301025 261.274384,190.309769 274.785217,195.036102 
z"/>
<path fill="#FEFEFE" opacity="1.000000" stroke="none" 
	d="
M144.687531,220.503479 
	C149.196579,232.970123 149.404221,245.382599 146.680786,257.755432 
	C143.095581,274.043335 131.317825,285.127808 113.880745,286.712738 
	C96.533089,288.289551 79.013741,287.977356 61.205318,288.504242 
	C61.205318,257.613220 61.205318,227.422379 61.205318,196.594315 
	C63.086559,196.594315 65.008904,196.547180 66.928345,196.601730 
	C83.216248,197.064651 99.595947,196.645416 115.762367,198.302689 
	C129.052780,199.665131 139.176575,207.282303 144.687531,220.503479 
M90.153893,237.500656 
	C90.153893,246.929855 90.153893,256.359039 90.153893,265.941589 
	C94.763123,265.941589 98.763214,266.198059 102.719223,265.889465 
	C111.588150,265.197601 117.219078,259.805664 117.919617,250.926788 
	C118.376328,245.138275 118.359978,239.253845 117.894470,233.465546 
	C117.268951,225.687531 112.546280,220.182755 105.456573,219.223633 
	C100.600990,218.566742 95.584686,219.097809 90.153900,219.097809 
	C90.153900,224.921585 90.153900,230.711456 90.153893,237.500656 
z"/>
<path fill="#FBFDFB" opacity="1.000000" stroke="none" 
	d="
M422.592529,194.204498 
	C434.896149,198.696640 444.603607,205.443619 448.215271,218.453339 
	C449.005188,221.298615 449.200043,224.309097 449.729279,227.621002 
	C439.514008,227.621002 429.792908,227.621002 420.084534,227.621002 
	C416.896454,218.162292 410.410950,213.883850 399.972839,214.316391 
	C388.635040,214.786179 381.249603,219.798294 379.889923,229.968521 
	C378.826874,237.919617 379.088684,246.269226 380.233276,254.230225 
	C381.323944,261.816223 387.117981,266.305145 394.635956,267.621277 
	C402.738525,269.039703 410.723694,268.705414 416.922058,262.195953 
	C418.287689,260.761749 418.828552,258.542175 420.217316,255.739578 
	C412.114319,255.739578 405.082153,255.739578 397.754456,255.739578 
	C397.754456,248.859314 397.754456,242.615082 397.754456,236.013031 
	C414.874817,236.013031 431.936890,236.013031 449.294128,236.013031 
	C449.294128,253.825851 449.294128,271.584106 449.294128,289.671509 
	C444.038330,289.671509 438.796906,289.671509 433.313080,289.671509 
	C432.331940,286.909027 431.302063,284.009277 430.131195,280.712494 
	C416.509491,291.008209 401.404266,292.937103 385.347015,291.089417 
	C365.511902,288.807007 352.007202,277.239929 348.553528,257.422363 
	C347.005249,248.538055 346.768677,239.077194 347.932739,230.137878 
	C350.682617,209.020706 363.751373,196.043839 384.641693,192.261185 
	C397.261597,189.976089 409.843964,190.304214 422.592529,194.204498 
z"/>
<path fill="#048204" opacity="1.000000" stroke="none" 
	d="
M90.153900,237.000977 
	C90.153900,230.711456 90.153900,224.921585 90.153900,219.097809 
	C95.584686,219.097809 100.600990,218.566742 105.456573,219.223633 
	C112.546280,220.182755 117.268951,225.687531 117.894470,233.465546 
	C118.359978,239.253845 118.376328,245.138275 117.919617,250.926788 
	C117.219078,259.805664 111.588150,265.197601 102.719223,265.889465 
	C98.763214,266.198059 94.763123,265.941589 90.153893,265.941589 
	C90.153893,256.359039 90.153893,246.929855 90.153900,237.000977 
z"/>
</svg>