<svg version="1.1" id="Layer_1" xmlns="http://www.w3.org/2000/svg" xmlns:xlink="http://www.w3.org/1999/xlink" x="0px" y="0px"
	 width="100%" viewBox="0 0 500 500" enable-background="new 0 0 500 500" xml:space="preserve">
<path fill="#FFFFFF" opacity="1.000000" stroke="none" 
	d="
M334.000000,501.000000 
	C222.666687,501.000000 111.833389,501.000000 1.000059,501.000000 
	C1.000040,334.333405 1.000040,167.666794 1.000020,1.000149 
	C167.666565,1.000099 334.333130,1.000099 500.999756,1.000050 
	C500.999847,167.666519 500.999847,334.333038 500.999939,500.999786 
	C445.500000,501.000000 390.000000,501.000000 334.000000,501.000000 
M141.189926,259.432495 
	C141.461746,265.602142 141.961990,271.772644 141.938873,277.941193 
	C141.917282,283.707458 141.255371,289.468292 141.027664,295.237518 
	C140.675751,304.153412 140.387360,313.073486 140.268219,321.994415 
	C140.254745,323.002991 141.505310,324.028503 142.075684,325.789642 
	C141.318329,327.618622 140.780869,329.580750 139.767426,331.254669 
	C133.828094,341.064606 130.819962,351.445160 132.478912,363.280792 
	C131.126434,366.940216 129.203201,370.498932 128.536407,374.279297 
	C126.991135,383.040131 128.154739,391.687469 133.560989,398.909729 
	C145.862030,415.342651 163.902298,419.353119 182.917084,419.751068 
	C191.758163,419.936096 200.778412,418.645660 209.480255,416.864929 
	C225.650772,413.555786 241.969955,410.394257 257.631500,405.329193 
	C275.585938,399.522583 292.410187,390.739014 308.521759,380.764526 
	C323.352631,371.582947 337.282806,361.322083 349.137360,348.390991 
	C362.612671,333.691833 372.514191,316.925812 376.853180,297.463409 
	C379.247162,286.725525 379.657776,275.547485 381.014648,264.574341 
	C381.248474,262.682953 381.743378,260.823822 382.781616,259.151093 
	C391.107208,264.366425 399.698761,264.824554 408.300262,260.094299 
	C412.322449,257.882324 415.249542,254.609650 414.770874,249.365356 
	C396.882019,252.181183 394.842255,251.673843 395.364532,245.392700 
	C401.387878,244.559891 407.360565,244.211975 413.073761,242.807999 
	C418.639648,241.440216 421.203674,237.327957 421.059235,232.146408 
	C420.931519,227.564697 417.889862,223.380341 412.560760,222.397247 
	C407.404266,221.445999 401.985748,221.195572 396.748199,221.566727 
	C388.292664,222.165894 383.117249,228.230988 377.793610,233.437103 
	C377.522949,232.325455 377.158813,231.227295 376.996277,230.100052 
	C375.626404,220.598618 374.999481,210.926697 372.821503,201.616608 
	C365.225708,169.147507 348.747070,142.055893 322.087921,121.643234 
	C297.818695,103.060501 270.044708,94.285194 239.696030,93.025963 
	C233.594543,92.772804 227.279480,91.070541 221.450073,92.142326 
	C206.309052,94.926132 191.307800,98.592377 176.403336,102.489899 
	C168.749985,104.491249 161.191055,107.247803 155.625427,113.548119 
	C149.739563,120.210983 149.549286,128.607315 149.226089,136.581909 
	C148.398209,157.009323 148.304779,177.467209 147.979767,197.913895 
	C147.866013,205.070618 147.978836,212.230804 147.883713,219.388031 
	C147.862289,221.000259 147.404388,222.606705 146.412537,223.954422 
	C126.776360,214.688934 106.860901,225.826752 106.857765,246.075623 
	C106.856506,254.177338 110.770454,259.686920 118.558502,262.009338 
	C126.467384,264.367828 134.004883,263.514587 141.189926,259.432495 
M94.939209,212.390045 
	C83.190491,211.849976 71.443954,211.250610 59.691250,210.819229 
	C57.303825,210.731613 56.255035,211.900314 56.824070,214.693817 
	C57.352371,217.287369 57.529545,220.210678 56.883938,222.739258 
	C54.422001,232.381699 51.671303,241.955536 48.777821,251.478867 
	C48.092293,253.735138 46.453598,255.708023 45.212685,257.786987 
	C44.509487,258.965027 43.723667,260.093781 42.975060,261.244720 
	C44.401894,261.815796 45.819595,262.852722 47.257080,262.880890 
	C55.404762,263.040649 63.561249,263.125427 71.707191,262.926636 
	C91.837196,262.435364 102.233627,253.379730 105.749840,233.533157 
	C107.580124,223.202438 104.481010,216.830490 94.939209,212.390045 
M441.116577,256.917603 
	C443.399841,248.616318 445.683075,240.315048 447.966309,232.013763 
	C448.596161,232.052811 449.225983,232.091843 449.855835,232.130875 
	C450.870514,233.554718 451.653656,235.258972 452.956055,236.334381 
	C454.755280,237.819992 456.840027,239.588959 458.990723,239.889450 
	C463.539307,240.524933 466.991669,237.136078 467.734314,232.238022 
	C468.451202,227.509613 465.666809,223.107132 461.161469,221.870132 
	C455.950623,220.439453 451.861542,222.474365 448.464081,226.287643 
	C443.985626,220.798203 432.152893,219.832275 427.187073,224.539902 
	C426.515167,225.176895 426.769379,226.964294 426.865234,228.197998 
	C427.019104,230.178375 428.181335,232.445023 427.553802,234.061249 
	C423.978516,243.269943 424.036682,253.959717 416.149017,261.372162 
	C421.244385,264.111725 441.684418,263.544952 444.626617,260.594818 
	C443.566650,259.589783 442.512177,258.589966 441.116577,256.917603 
z"/>
<path fill="#9BDAFE" opacity="1.000000" stroke="none" 
	d="
M133.158829,362.961945 
	C130.819962,351.445160 133.828094,341.064606 139.767426,331.254669 
	C140.780869,329.580750 141.318329,327.618622 142.379730,325.177612 
	C144.083771,316.819824 146.385742,309.111359 146.707947,301.321045 
	C147.542908,281.132660 147.505951,260.908203 147.948730,240.373123 
	C152.490677,233.791016 152.282288,230.254715 147.147430,224.215805 
	C147.404388,222.606705 147.862289,221.000259 147.883713,219.388031 
	C147.978836,212.230804 147.866013,205.070618 147.979767,197.913895 
	C148.304779,177.467209 148.398209,157.009323 149.226089,136.581909 
	C149.549286,128.607315 149.739563,120.210983 155.625427,113.548119 
	C161.191055,107.247803 168.749985,104.491249 176.403336,102.489899 
	C191.307800,98.592377 206.309052,94.926132 221.450073,92.142326 
	C227.279480,91.070541 233.594543,92.772804 239.696030,93.025963 
	C270.044708,94.285194 297.818695,103.060501 322.087921,121.643234 
	C348.747070,142.055893 365.225708,169.147507 372.821503,201.616608 
	C374.999481,210.926697 375.626404,220.598618 376.996277,230.100052 
	C377.158813,231.227295 377.522949,232.325455 377.934601,234.247482 
	C377.427002,239.368713 376.778412,243.679581 376.099365,248.439728 
	C374.691681,257.563416 373.314453,266.237793 371.683655,275.168579 
	C370.238617,279.203705 369.047150,282.982391 367.575928,286.979034 
	C365.566559,290.575958 363.939606,294.012268 362.089508,297.323914 
	C354.460114,310.980743 344.391479,322.548920 332.230774,332.384979 
	C304.734222,354.625366 274.071686,370.898224 239.879990,379.826233 
	C224.728027,383.782715 209.055939,385.884705 193.530579,388.239197 
	C173.993469,391.202087 155.870743,387.557892 139.957230,374.646973 
	C138.902863,373.510101 138.000305,372.645081 137.051453,371.461304 
	C136.347397,370.071381 135.689636,369.000183 134.988281,367.588043 
	C134.349380,365.818726 133.754105,364.390320 133.158829,362.961945 
M206.093307,182.917145 
	C206.749405,196.942871 207.405502,210.968582 207.742844,225.592026 
	C193.609421,237.176727 194.767822,255.470856 210.082642,263.353668 
	C210.746216,278.774384 211.409790,294.195129 212.090881,310.022614 
	C213.660889,309.476807 214.304596,309.329590 214.878220,309.042419 
	C232.234467,300.353973 249.708557,291.888947 266.883514,282.855255 
	C275.967987,278.076996 284.667786,272.480377 291.805725,263.780823 
	C293.953125,263.529480 296.121674,263.394318 298.244354,263.007446 
	C309.766693,260.907288 318.215851,252.392029 320.364716,240.803146 
	C322.310455,230.309860 317.432556,224.232956 304.930603,220.549362 
	C304.620605,217.920135 304.455139,215.264328 303.976929,212.666046 
	C301.076324,196.905334 293.956268,183.597229 281.244995,173.485458 
	C269.617035,164.235443 256.353302,158.993896 241.739807,156.925095 
	C229.690521,155.219315 217.639297,153.527206 204.722168,151.706879 
	C205.208923,160.506821 205.637695,168.258942 206.016785,176.871964 
	C206.064438,178.598221 206.112091,180.324463 206.093307,182.917145 
M345.532684,263.074402 
	C367.590088,267.304474 378.237976,246.313507 374.516083,230.333664 
	C372.468567,221.542633 362.550995,218.327133 354.978577,223.512375 
	C353.404572,224.590164 351.998993,225.913956 350.515778,227.124374 
	C350.667084,226.630203 350.818390,226.136032 350.969696,225.641846 
	C348.224579,224.231598 345.551788,221.859421 342.716644,221.646179 
	C338.874207,221.357162 334.823975,222.423843 331.023163,223.483704 
	C328.492126,224.189468 326.300507,225.783768 329.356995,228.845551 
	C330.080658,229.570465 330.370209,231.411392 330.006561,232.436356 
	C324.801727,247.106293 322.963562,263.001465 314.459869,276.563293 
	C318.352936,279.033051 337.292786,278.589111 340.460510,275.734772 
	C337.708862,270.895538 337.773804,269.979858 341.504517,261.836792 
	C342.560455,262.191772 343.633270,262.552399 345.532684,263.074402 
M196.808044,239.091705 
	C196.821579,235.167603 197.498306,231.097137 196.673126,227.358139 
	C195.737564,223.118927 191.078476,220.860260 186.819595,221.540802 
	C182.103882,222.294357 179.560577,225.508194 179.892899,229.879959 
	C180.152252,233.291840 182.074707,236.583633 183.303604,239.911987 
	C183.727188,241.059204 185.017136,242.772629 184.672897,243.179398 
	C181.433136,247.007935 178.280960,251.072006 174.353683,254.093491 
	C172.185043,255.761917 169.766434,254.264359 170.776932,250.769547 
	C172.162521,245.977402 173.630829,241.209229 175.038147,236.423279 
	C177.032471,229.641068 176.293503,226.004242 172.418869,223.351395 
	C168.478317,220.653412 160.082748,220.685532 156.297958,223.799103 
	C155.306839,224.614456 154.967239,226.638580 154.944214,228.117172 
	C154.908829,230.388763 155.974396,232.779312 155.557129,234.921555 
	C154.734482,239.145081 153.167465,243.219452 151.993317,247.379501 
	C149.266220,257.041534 152.400696,261.934204 162.427872,263.364990 
	C164.851074,263.710754 167.480072,263.763031 169.840469,263.209045 
	C182.824692,260.161652 191.323669,251.850189 196.808044,239.091705 
z"/>
<path fill="#040404" opacity="1.000000" stroke="none" 
	d="
M95.287308,212.563660 
	C104.481010,216.830490 107.580124,223.202438 105.749840,233.533157 
	C102.233627,253.379730 91.837196,262.435364 71.707191,262.926636 
	C63.561249,263.125427 55.404762,263.040649 47.257080,262.880890 
	C45.819595,262.852722 44.401894,261.815796 42.975060,261.244720 
	C43.723667,260.093781 44.509487,258.965027 45.212685,257.786987 
	C46.453598,255.708023 48.092293,253.735138 48.777821,251.478867 
	C51.671303,241.955536 54.422001,232.381699 56.883938,222.739258 
	C57.529545,220.210678 57.352371,217.287369 56.824070,214.693817 
	C56.255035,211.900314 57.303825,210.731613 59.691250,210.819229 
	C71.443954,211.250610 83.190491,211.849976 95.287308,212.563660 
M86.234581,227.977600 
	C86.904816,219.553543 85.447945,217.727478 77.960281,218.107040 
	C74.531013,230.502014 71.070030,243.011597 67.553406,255.722290 
	C73.763901,256.495087 77.842896,254.010727 79.736275,249.133804 
	C82.302910,242.522705 84.040161,235.589630 86.234581,227.977600 
z"/>
<path fill="#E9E9E9" opacity="1.000000" stroke="none" 
	d="
M132.818878,363.121368 
	C133.754105,364.390320 134.349380,365.818726 134.826431,367.947998 
	C130.229935,384.422485 133.107483,395.545074 143.552902,403.833893 
	C152.323868,410.794037 162.863434,414.819092 173.968735,414.778198 
	C187.829086,414.727173 201.829926,413.935394 215.507477,411.789520 
	C239.000381,408.103699 261.521179,400.838501 282.880524,390.112335 
	C299.995117,381.517731 316.354675,371.847198 331.132568,359.562012 
	C348.981110,344.724182 362.770477,327.194489 370.285095,304.864441 
	C375.995453,287.895905 377.447540,270.559509 377.345337,253.023575 
	C379.146210,255.087769 380.631958,257.018768 382.117737,258.949799 
	C381.743378,260.823822 381.248474,262.682953 381.014648,264.574341 
	C379.657776,275.547485 379.247162,286.725525 376.853180,297.463409 
	C372.514191,316.925812 362.612671,333.691833 349.137360,348.390991 
	C337.282806,361.322083 323.352631,371.582947 308.521759,380.764526 
	C292.410187,390.739014 275.585938,399.522583 257.631500,405.329193 
	C241.969955,410.394257 225.650772,413.555786 209.480255,416.864929 
	C200.778412,418.645660 191.758163,419.936096 182.917084,419.751068 
	C163.902298,419.353119 145.862030,415.342651 133.560989,398.909729 
	C128.154739,391.687469 126.991135,383.040131 128.536407,374.279297 
	C129.203201,370.498932 131.126434,366.940216 132.818878,363.121368 
z"/>
<path fill="#050505" opacity="1.000000" stroke="none" 
	d="
M382.449646,259.050446 
	C380.631958,257.018768 379.146210,255.087769 377.372986,252.639221 
	C376.766998,250.744598 376.448395,249.367523 376.129822,247.990433 
	C376.778412,243.679581 377.427002,239.368713 378.086548,234.646118 
	C383.117249,228.230988 388.292664,222.165894 396.748199,221.566727 
	C401.985748,221.195572 407.404266,221.445999 412.560760,222.397247 
	C417.889862,223.380341 420.931519,227.564697 421.059235,232.146408 
	C421.203674,237.327957 418.639648,241.440216 413.073761,242.807999 
	C407.360565,244.211975 401.387878,244.559891 395.364532,245.392700 
	C394.842255,251.673843 396.882019,252.181183 414.770874,249.365356 
	C415.249542,254.609650 412.322449,257.882324 408.300262,260.094299 
	C399.698761,264.824554 391.107208,264.366425 382.449646,259.050446 
M401.138672,236.407944 
	C401.761536,233.620148 402.384399,230.832367 403.007263,228.044571 
	C402.105774,227.740311 401.204285,227.436050 400.302795,227.131775 
	C398.465973,231.073639 396.629120,235.015503 394.792297,238.957367 
	C395.268982,239.334229 395.745697,239.711090 396.222382,240.087952 
	C397.743591,239.082520 399.264771,238.077072 401.138672,236.407944 
z"/>
<path fill="#050505" opacity="1.000000" stroke="none" 
	d="
M146.779984,224.085114 
	C152.282288,230.254715 152.490677,233.791016 147.607651,240.501862 
	C140.260513,245.045410 132.662903,244.995300 123.856781,244.408539 
	C125.168549,246.825577 125.898293,249.719376 126.942863,249.837860 
	C132.756607,250.497375 138.646698,250.483871 145.357849,250.731888 
	C144.094345,252.961014 142.485641,255.799133 140.876938,258.637268 
	C134.004883,263.514587 126.467384,264.367828 118.558502,262.009338 
	C110.770454,259.686920 106.856506,254.177338 106.857765,246.075623 
	C106.860901,225.826752 126.776360,214.688934 146.779984,224.085114 
M126.914719,233.408081 
	C126.327690,235.353668 125.740654,237.299240 125.064529,239.540131 
	C131.649490,238.406693 134.315140,232.950165 131.021576,226.919449 
	C129.567703,229.079697 128.354965,230.881653 126.914719,233.408081 
z"/>
<path fill="#040505" opacity="1.000000" stroke="none" 
	d="
M441.287170,257.253906 
	C442.512177,258.589966 443.566650,259.589783 444.626617,260.594818 
	C441.684418,263.544952 421.244385,264.111725 416.149017,261.372162 
	C424.036682,253.959717 423.978516,243.269943 427.553802,234.061249 
	C428.181335,232.445023 427.019104,230.178375 426.865234,228.197998 
	C426.769379,226.964294 426.515167,225.176895 427.187073,224.539902 
	C432.152893,219.832275 443.985626,220.798203 448.464081,226.287643 
	C451.861542,222.474365 455.950623,220.439453 461.161469,221.870132 
	C465.666809,223.107132 468.451202,227.509613 467.734314,232.238022 
	C466.991669,237.136078 463.539307,240.524933 458.990723,239.889450 
	C456.840027,239.588959 454.755280,237.819992 452.956055,236.334381 
	C451.653656,235.258972 450.870514,233.554718 449.855835,232.130875 
	C449.225983,232.091843 448.596161,232.052811 447.966309,232.013763 
	C445.683075,240.315048 443.399841,248.616318 441.287170,257.253906 
z"/>
<path fill="#F0F0F1" opacity="1.000000" stroke="none" 
	d="
M141.033432,259.034882 
	C142.485641,255.799133 144.094345,252.961014 145.357849,250.731888 
	C138.646698,250.483871 132.756607,250.497375 126.942863,249.837860 
	C125.898293,249.719376 125.168549,246.825577 123.856781,244.408539 
	C132.662903,244.995300 140.260513,245.045410 147.475983,240.826904 
	C147.505951,260.908203 147.542908,281.132660 146.707947,301.321045 
	C146.385742,309.111359 144.083771,316.819824 142.426758,324.805847 
	C141.505310,324.028503 140.254745,323.002991 140.268219,321.994415 
	C140.387360,313.073486 140.675751,304.153412 141.027664,295.237518 
	C141.255371,289.468292 141.917282,283.707458 141.938873,277.941193 
	C141.961990,271.772644 141.461746,265.602142 141.033432,259.034882 
z"/>
<path fill="#FCFCFC" opacity="1.000000" stroke="none" 
	d="
M290.983368,264.006226 
	C284.667786,272.480377 275.967987,278.076996 266.883514,282.855255 
	C249.708557,291.888947 232.234467,300.353973 214.878220,309.042419 
	C214.304596,309.329590 213.660889,309.476807 212.090881,310.022614 
	C211.409790,294.195129 210.746216,278.774384 210.539612,262.900818 
	C225.549240,265.066925 237.390045,258.658478 235.426788,249.225891 
	C220.287872,252.976730 215.418442,251.730377 216.606018,245.297974 
	C222.422592,244.555725 228.086823,244.311188 233.500183,243.017181 
	C239.810547,241.508713 242.468628,237.590332 242.251587,231.986176 
	C242.061646,227.081253 238.602798,223.431213 232.686646,221.993484 
	C225.356674,220.212143 218.159378,220.758209 211.034943,222.920532 
	C210.315155,211.429718 209.534470,200.382919 209.058182,189.322983 
	C208.826538,183.943649 210.442001,182.556671 215.999649,183.063263 
	C220.426178,183.466736 224.795441,184.464142 229.215897,184.974670 
	C244.426971,186.731415 259.305481,189.658478 272.562561,197.849030 
	C282.016479,203.689880 289.832520,211.128830 293.618652,221.898727 
	C282.938965,224.578796 275.004272,230.041916 271.512604,240.513824 
	C267.498566,252.552368 273.047852,261.368988 285.560760,263.204071 
	C287.368652,263.469177 289.175842,263.738739 290.983368,264.006226 
M259.335480,205.572113 
	C257.301544,206.259628 255.106506,206.679840 253.310577,207.762268 
	C252.560394,208.214417 252.379257,210.086060 252.431198,211.291107 
	C252.528137,213.539169 253.687866,215.952759 253.166290,217.978439 
	C251.221359,225.532059 249.028320,233.045670 246.442581,240.403580 
	C243.924652,247.568542 243.989899,255.928574 236.930771,261.026154 
	C241.152802,263.928162 260.035400,263.727844 262.915924,261.630493 
	C262.915924,257.750580 262.224792,254.364731 263.040466,251.392410 
	C265.940094,240.826202 269.339508,230.396667 272.575165,219.923264 
	C276.691376,206.599533 274.342285,203.829514 259.335480,205.572113 
z"/>
<path fill="#AFB0B0" opacity="1.000000" stroke="none" 
	d="
M140.109055,374.918793 
	C155.870743,387.557892 173.993469,391.202087 193.530579,388.239197 
	C209.055939,385.884705 224.728027,383.782715 239.879990,379.826233 
	C274.071686,370.898224 304.734222,354.625366 332.230774,332.384979 
	C344.391479,322.548920 354.460114,310.980743 362.089508,297.323914 
	C363.939606,294.012268 365.566559,290.575958 367.735809,287.330017 
	C368.188354,288.563568 368.394440,289.702118 368.185974,290.758911 
	C362.552002,319.322205 346.249329,341.109955 323.756683,358.399475 
	C301.477234,375.525024 276.977356,389.118256 250.010651,397.233124 
	C234.077286,402.027771 217.476913,404.651855 201.122208,407.985596 
	C188.385040,410.581940 175.565506,410.982300 163.015549,406.953949 
	C153.597366,403.930847 143.983063,400.523834 140.262390,390.142517 
	C138.566025,385.409302 135.273224,380.007996 140.109055,374.918793 
z"/>
<path fill="#B0B1B1" opacity="1.000000" stroke="none" 
	d="
M206.066498,176.011078 
	C205.637695,168.258942 205.208923,160.506821 204.722168,151.706879 
	C217.639297,153.527206 229.690521,155.219315 241.739807,156.925095 
	C256.353302,158.993896 269.617035,164.235443 281.244995,173.485458 
	C293.956268,183.597229 301.076324,196.905334 303.976929,212.666046 
	C304.455139,215.264328 304.620605,217.920135 304.497559,221.064148 
	C303.051086,221.415085 302.037598,221.251221 301.009644,220.707825 
	C294.534210,204.342392 282.364075,193.817398 267.054108,187.335770 
	C247.684570,179.135498 226.984650,176.636047 206.066498,176.011078 
z"/>
<path fill="#030404" opacity="1.000000" stroke="none" 
	d="
M345.119385,262.993713 
	C343.633270,262.552399 342.560455,262.191772 341.504517,261.836792 
	C337.773804,269.979858 337.708862,270.895538 340.460510,275.734772 
	C337.292786,278.589111 318.352936,279.033051 314.459869,276.563293 
	C322.963562,263.001465 324.801727,247.106293 330.006561,232.436356 
	C330.370209,231.411392 330.080658,229.570465 329.356995,228.845551 
	C326.300507,225.783768 328.492126,224.189468 331.023163,223.483704 
	C334.823975,222.423843 338.874207,221.357162 342.716644,221.646179 
	C345.551788,221.859421 348.224579,224.231598 350.969696,225.641846 
	C350.818390,226.136032 350.667084,226.630203 350.515778,227.124374 
	C351.998993,225.913956 353.404572,224.590164 354.978577,223.512375 
	C362.550995,218.327133 372.468567,221.542633 374.516083,230.333664 
	C378.237976,246.313507 367.590088,267.304474 345.119385,262.993713 
M353.687927,232.210419 
	C352.153137,233.291138 349.750916,234.060532 349.232178,235.505905 
	C346.854462,242.131226 345.003845,248.945709 342.937653,255.779221 
	C350.119904,256.634979 356.654449,242.654068 353.687927,232.210419 
z"/>
<path fill="#040505" opacity="1.000000" stroke="none" 
	d="
M301.024139,221.087357 
	C302.037598,221.251221 303.051086,221.415085 304.449402,221.517059 
	C317.432556,224.232956 322.310455,230.309860 320.364716,240.803146 
	C318.215851,252.392029 309.766693,260.907288 298.244354,263.007446 
	C296.121674,263.394318 293.953125,263.529480 291.394531,263.893524 
	C289.175842,263.738739 287.368652,263.469177 285.560760,263.204071 
	C273.047852,261.368988 267.498566,252.552368 271.512604,240.513824 
	C275.004272,230.041916 282.938965,224.578796 293.988739,221.971100 
	C295.473877,221.892181 296.223694,221.859421 297.320587,221.866409 
	C298.786499,221.633224 299.905304,221.360291 301.024139,221.087357 
M300.783630,237.249435 
	C300.913940,236.428085 301.251801,235.575623 301.134247,234.791428 
	C300.825104,232.729233 300.317871,230.696747 299.889526,228.652435 
	C298.308472,230.175476 295.976593,231.418304 295.284332,233.273071 
	C293.029938,239.313171 291.221863,245.537262 289.601837,251.783875 
	C289.222137,253.248047 290.258789,255.079529 290.643799,256.742004 
	C292.126068,255.660431 294.334412,254.891434 294.959015,253.440628 
	C297.115387,248.431625 298.719482,243.184860 300.783630,237.249435 
z"/>
<path fill="#040505" opacity="1.000000" stroke="none" 
	d="
M196.655640,239.458710 
	C191.323669,251.850189 182.824692,260.161652 169.840469,263.209045 
	C167.480072,263.763031 164.851074,263.710754 162.427872,263.364990 
	C152.400696,261.934204 149.266220,257.041534 151.993317,247.379501 
	C153.167465,243.219452 154.734482,239.145081 155.557129,234.921555 
	C155.974396,232.779312 154.908829,230.388763 154.944214,228.117172 
	C154.967239,226.638580 155.306839,224.614456 156.297958,223.799103 
	C160.082748,220.685532 168.478317,220.653412 172.418869,223.351395 
	C176.293503,226.004242 177.032471,229.641068 175.038147,236.423279 
	C173.630829,241.209229 172.162521,245.977402 170.776932,250.769547 
	C169.766434,254.264359 172.185043,255.761917 174.353683,254.093491 
	C178.280960,251.072006 181.433136,247.007935 184.672897,243.179398 
	C185.017136,242.772629 183.727188,241.059204 183.303604,239.911987 
	C182.074707,236.583633 180.152252,233.291840 179.892899,229.879959 
	C179.560577,225.508194 182.103882,222.294357 186.819595,221.540802 
	C191.078476,220.860260 195.737564,223.118927 196.673126,227.358139 
	C197.498306,231.097137 196.821579,235.167603 196.655640,239.458710 
z"/>
<path fill="#050505" opacity="1.000000" stroke="none" 
	d="
M211.099304,223.359131 
	C218.159378,220.758209 225.356674,220.212143 232.686646,221.993484 
	C238.602798,223.431213 242.061646,227.081253 242.251587,231.986176 
	C242.468628,237.590332 239.810547,241.508713 233.500183,243.017181 
	C228.086823,244.311188 222.422592,244.555725 216.606018,245.297974 
	C215.418442,251.730377 220.287872,252.976730 235.426788,249.225891 
	C237.390045,258.658478 225.549240,265.066925 210.533157,262.393799 
	C194.767822,255.470856 193.609421,237.176727 208.194748,225.260071 
	C209.464203,224.405106 210.281754,223.882126 211.099304,223.359131 
M217.309631,239.562668 
	C222.941589,238.000854 224.905289,234.118637 223.008499,227.370285 
	C218.435608,230.110992 217.522751,234.467438 217.309631,239.562668 
z"/>
<path fill="#C9C9C9" opacity="1.000000" stroke="none" 
	d="
M376.099365,248.439728 
	C376.448395,249.367523 376.766998,250.744598 377.057922,252.506042 
	C377.447540,270.559509 375.995453,287.895905 370.285095,304.864441 
	C362.770477,327.194489 348.981110,344.724182 331.132568,359.562012 
	C316.354675,371.847198 299.995117,381.517731 282.880524,390.112335 
	C261.521179,400.838501 239.000381,408.103699 215.507477,411.789520 
	C201.829926,413.935394 187.829086,414.727173 173.968735,414.778198 
	C162.863434,414.819092 152.323868,410.794037 143.552902,403.833893 
	C133.107483,395.545074 130.229935,384.422485 134.870056,368.288940 
	C135.689636,369.000183 136.347397,370.071381 136.875824,371.867065 
	C134.618942,383.755127 136.050308,394.005432 145.839371,401.136322 
	C154.982498,407.796753 165.404938,411.928314 176.829178,411.876709 
	C186.573807,411.832642 196.478531,411.571167 206.017914,409.810242 
	C221.758881,406.904602 237.568573,403.673279 252.789413,398.822388 
	C272.357788,392.585938 291.130920,384.051666 307.955719,371.969574 
	C318.569519,364.347595 329.585449,357.027344 339.044403,348.111328 
	C356.633087,331.532166 367.322662,310.718414 371.753174,286.898224 
	C372.473511,283.025452 371.908234,278.913574 371.937225,274.912201 
	C373.314453,266.237793 374.691681,257.563416 376.099365,248.439728 
z"/>
<path fill="#B6B7B7" opacity="1.000000" stroke="none" 
	d="
M371.683655,275.168579 
	C371.908234,278.913574 372.473511,283.025452 371.753174,286.898224 
	C367.322662,310.718414 356.633087,331.532166 339.044403,348.111328 
	C329.585449,357.027344 318.569519,364.347595 307.955719,371.969574 
	C291.130920,384.051666 272.357788,392.585938 252.789413,398.822388 
	C237.568573,403.673279 221.758881,406.904602 206.017914,409.810242 
	C196.478531,411.571167 186.573807,411.832642 176.829178,411.876709 
	C165.404938,411.928314 154.982498,407.796753 145.839371,401.136322 
	C136.050308,394.005432 134.618942,383.755127 136.922119,372.185791 
	C138.000305,372.645081 138.902863,373.510101 139.957230,374.646973 
	C135.273224,380.007996 138.566025,385.409302 140.262390,390.142517 
	C143.983063,400.523834 153.597366,403.930847 163.015549,406.953949 
	C175.565506,410.982300 188.385040,410.581940 201.122208,407.985596 
	C217.476913,404.651855 234.077286,402.027771 250.010651,397.233124 
	C276.977356,389.118256 301.477234,375.525024 323.756683,358.399475 
	C346.249329,341.109955 362.552002,319.322205 368.185974,290.758911 
	C368.394440,289.702118 368.188354,288.563568 368.015564,287.112122 
	C369.047150,282.982391 370.238617,279.203705 371.683655,275.168579 
z"/>
<path fill="#D0D1D1" opacity="1.000000" stroke="none" 
	d="
M301.009644,220.707825 
	C299.905304,221.360291 298.786499,221.633224 297.284912,221.519897 
	C291.452545,209.268784 282.562775,200.648010 271.406586,194.195724 
	C255.342575,184.904907 237.300278,183.359467 219.469406,180.978104 
	C214.937927,180.372894 210.370987,178.874039 206.159760,182.050720 
	C206.112091,180.324463 206.064438,178.598221 206.041641,176.441528 
	C226.984650,176.636047 247.684570,179.135498 267.054108,187.335770 
	C282.364075,193.817398 294.534210,204.342392 301.009644,220.707825 
z"/>
<path fill="#EDEEEE" opacity="1.000000" stroke="none" 
	d="
M206.126526,182.483932 
	C210.370987,178.874039 214.937927,180.372894 219.469406,180.978104 
	C237.300278,183.359467 255.342575,184.904907 271.406586,194.195724 
	C282.562775,200.648010 291.452545,209.268784 296.937836,221.480148 
	C296.223694,221.859421 295.473877,221.892181 294.353973,221.852570 
	C289.832520,211.128830 282.016479,203.689880 272.562561,197.849030 
	C259.305481,189.658478 244.426971,186.731415 229.215897,184.974670 
	C224.795441,184.464142 220.426178,183.466736 215.999649,183.063263 
	C210.442001,182.556671 208.826538,183.943649 209.058182,189.322983 
	C209.534470,200.382919 210.315155,211.429718 211.034943,222.920532 
	C210.281754,223.882126 209.464203,224.405106 208.354126,224.961212 
	C207.405502,210.968582 206.749405,196.942871 206.126526,182.483932 
z"/>
<path fill="#F7F7F7" opacity="1.000000" stroke="none" 
	d="
M86.183884,228.386139 
	C84.040161,235.589630 82.302910,242.522705 79.736275,249.133804 
	C77.842896,254.010727 73.763901,256.495087 67.553406,255.722290 
	C71.070030,243.011597 74.531013,230.502014 77.960281,218.107040 
	C85.447945,217.727478 86.904816,219.553543 86.183884,228.386139 
z"/>
<path fill="#E9E9E9" opacity="1.000000" stroke="none" 
	d="
M400.962311,236.739777 
	C399.264771,238.077072 397.743591,239.082520 396.222382,240.087952 
	C395.745697,239.711090 395.268982,239.334229 394.792297,238.957367 
	C396.629120,235.015503 398.465973,231.073639 400.302795,227.131775 
	C401.204285,227.436050 402.105774,227.740311 403.007263,228.044571 
	C402.384399,230.832367 401.761536,233.620148 400.962311,236.739777 
z"/>
<path fill="#E9E9E9" opacity="1.000000" stroke="none" 
	d="
M127.028473,233.045837 
	C128.354965,230.881653 129.567703,229.079697 131.021576,226.919449 
	C134.315140,232.950165 131.649490,238.406693 125.064529,239.540131 
	C125.740654,237.299240 126.327690,235.353668 127.028473,233.045837 
z"/>
<path fill="#040404" opacity="1.000000" stroke="none" 
	d="
M259.747375,205.453308 
	C274.342285,203.829514 276.691376,206.599533 272.575165,219.923264 
	C269.339508,230.396667 265.940094,240.826202 263.040466,251.392410 
	C262.224792,254.364731 262.915924,257.750580 262.915924,261.630493 
	C260.035400,263.727844 241.152802,263.928162 236.930771,261.026154 
	C243.989899,255.928574 243.924652,247.568542 246.442581,240.403580 
	C249.028320,233.045670 251.221359,225.532059 253.166290,217.978439 
	C253.687866,215.952759 252.528137,213.539169 252.431198,211.291107 
	C252.379257,210.086060 252.560394,208.214417 253.310577,207.762268 
	C255.106506,206.679840 257.301544,206.259628 259.747375,205.453308 
z"/>
<path fill="#9BDAFE" opacity="1.000000" stroke="none" 
	d="
M354.036438,232.408585 
	C356.654449,242.654068 350.119904,256.634979 342.937653,255.779221 
	C345.003845,248.945709 346.854462,242.131226 349.232178,235.505905 
	C349.750916,234.060532 352.153137,233.291138 354.036438,232.408585 
z"/>
<path fill="#EDEEEE" opacity="1.000000" stroke="none" 
	d="
M300.658752,237.639038 
	C298.719482,243.184860 297.115387,248.431625 294.959015,253.440628 
	C294.334412,254.891434 292.126068,255.660431 290.643799,256.742004 
	C290.258789,255.079529 289.222137,253.248047 289.601837,251.783875 
	C291.221863,245.537262 293.029938,239.313171 295.284332,233.273071 
	C295.976593,231.418304 298.308472,230.175476 299.889526,228.652435 
	C300.317871,230.696747 300.825104,232.729233 301.134247,234.791428 
	C301.251801,235.575623 300.913940,236.428085 300.658752,237.639038 
z"/>
<path fill="#E9E9E9" opacity="1.000000" stroke="none" 
	d="
M217.069778,239.256836 
	C217.522751,234.467438 218.435608,230.110992 223.008499,227.370285 
	C224.905289,234.118637 222.941589,238.000854 217.069778,239.256836 
z"/>
</svg>